# xmcd
#
# Track frame offsets: 
#        150
#        17282
#        38215
#        51962
#        73673
#        88293
#        105198
#        132174
#
# Disc length: 2118 seconds
#
# Revision: 2
# Processed by: cddbd v1.5.2PL0 Copyright (c) Steve Scherf et al.
# Submitted via: ExactAudioCopy v0.99pb5
#
DISCID=60084408
DTITLE=Conjunto Constanza - Atacando
DYEAR=1900
DGENRE=Salsa
TTITLE0=Ciudate De Mi
TTITLE1=La Zurrapita
TTITLE2=Mojame
TTITLE3=Corazon
TTITLE4=Tus Recuerdos
TTITLE5=Por Un Mani
TTITLE6=Confianza
TTITLE7=Vivo Encantado
EXTD=
EXTT0=
EXTT1=
EXTT2=
EXTT3=
EXTT4=
EXTT5=
EXTT6=
EXTT7=
PLAYORDER=
